<svg xml:space="preserve" id="logo-agridees_svg__Calque_1" x="0" y="0" version="1.1" viewBox="0 0 220.5 64.6" xmlns="http://www.w3.org/2000/svg"><style>.logo-agridees_svg__st1{fill:#003686}</style><path d="M6.6 37.4c-.2 3.7 2.6 6.9 6.3 7.1h.7c9.1 0 9.1-14.2 0-14.2-3.7-.2-6.8 2.7-6.9 6.4-.1.2-.1.5-.1.7m14.1-11.7h5.6v23.4h-5.5l-.3-3.4c-1.3 2.8-5 4.1-7.6 4.1C6 49.9.8 45.6.8 37.4c0-8.1 5.4-12.3 12.2-12.2 3.1 0 6.1 1.5 7.5 3.8l.2-3.3zm15 11.1c0 4.1 2.8 6.5 6.1 6.5s6.1-2.5 6.1-6.5-2.8-6.6-6.1-6.6c-3.4 0-6.1 2.5-6.1 6.6m13.8-13.5l4.3 3.2-2.6 3.3c1.7 1.9 2.6 4.4 2.5 6.9 0 2.9-1.1 7-4.9 8.7 3.9 1.9 4.8 4.7 4.8 7.7 0 6.5-4.9 10.4-11.7 10.4S30 59.4 30 53.1h5.7c0 3 2.8 5 6.1 5s5.9-1.8 5.9-5-3-4.7-5.9-4.7c-7.3 0-11.9-4.5-11.9-11.8S35.3 25 41.8 25c1.9-.1 3.7.4 5.4 1.3l2.3-3zm13.2 2.4l.4 2.7c1.8-2.9 4.2-3.3 6.6-3.3 2.2 0 4.4.8 6 2.2l-2.6 5c-1.1-1-2.6-1.6-4.2-1.5-3 0-5.8 1.6-5.8 5.9V49h-5.8V25.7h5.4zm99.8-10.5h-6.8l-3.5 6.5v.3h5.1l5.2-6.5v-.3zm-13.2 19.5H162c-.4-3-2.8-4.6-6.1-4.6-3.1 0-5.7 1.5-6.6 4.6m18.2 4.8h-18.3c.4 2.9 2.9 5 7 5 2.1 0 4.9-.8 6.3-2.2l3.7 3.7c-2.5 2.6-6.5 3.8-10.1 3.8-8.1 0-12.9-5-12.9-12.5 0-7.1 4.8-12.2 12.4-12.2 7.9-.1 12.8 4.7 11.9 14.4m22.1-4.8c-.4-3-2.8-4.6-6.1-4.6-3.1 0-5.7 1.5-6.5 4.6h12.6zm-12.7 4.8c.4 2.9 2.9 5 7 5 2.1 0 4.9-.8 6.3-2.2l3.7 3.7c-2.5 2.6-6.5 3.8-10.1 3.8-8.1 0-12.9-5-12.9-12.5 0-7.1 4.8-12.2 12.4-12.2 7.8 0 12.7 4.8 11.8 14.5l-18.2-.1zm38-7.6c-1.6-1.5-3.7-2.2-5.8-2.1-2.8 0-4.3.9-4.3 2.3 0 1.5 1.4 2.4 4.4 2.6 4.4.3 10 1.3 10 7.5 0 4.1-3.4 7.7-10.1 7.7-3.7 0-7.4-.6-10.8-4.2l2.8-4.1c1.7 1.8 5.5 3.2 8.1 3.3 2.2 0 4.2-1.1 4.2-2.8 0-1.6-1.3-2.3-4.7-2.5-4.4-.3-9.7-1.9-9.7-7.3s5.6-7.3 9.9-7.3c3.7 0 6.4.7 9.1 3.1l-3.1 3.8z" fill="#757474"/><path d="M105.6 40.4h10c11 0 15.3-8 15.1-15.9-.2-7.5-4.7-15-15.2-15h-10v30.9zm34.1-15.8c.2 12.2-7.3 24.6-24.2 24.6h-19V.8h19c16.6 0 24 11.8 24.2 23.8" class="logo-agridees_svg__st1"/><path class="logo-agridees_svg__st1" d="M304.4 45.6h9.1v31.2h-9.1zm0-17.1h9.1v8.6h-9.1z" transform="translate(-224.882 -27.638)"/><path d="M1.8 4.3h.9c.6 0 1.6 0 1.6-1.5 0-.8-.5-1.2-1.4-1.2H1.8v2.7zM.8.8h2.5c1.1 0 2 1 2 2.1 0 .8-.5 1.5-1.2 1.8.7.1 1.2.7 1.2 1.3l.1 1.3c0 .9.2 1.1.4 1.2H4.6c-.2-.3-.3-.7-.3-1.1V6.2c-.1-1-.7-1.1-1.2-1.1H1.8v3.5h-1V.8z" class="logo-agridees_svg__st1" transform="translate(78.727 55.098)"/><path d="M312.6 81.6h1.1l-1.2 1.5h-.7l.8-1.5zm-2.3 1.9h4v.9h-3.1v2.4h2.9v.8h-2.9v2.8h3.2v.8h-4.1v-7.7zm5.3 0h4v.8h-3.1v2.4h2.9v.8h-2.9v3.6h-1v-7.6zm5.1 0h1v6.9h3.1v.8h-4.1v-7.7zm7.3-1.9h1.1l-1.2 1.5h-.7l.8-1.5zm-2.3 1.9h4v.9h-3.1v2.4h2.9v.8h-2.9v2.8h3.2v.8h-4.1v-7.7z" class="logo-agridees_svg__st1" transform="translate(-224.882 -27.638)"/><path d="M5.7 6.1C5.6 7.5 5 8.9 3.3 8.9 1.1 8.9.8 6.8.8 4.9s.4-4 2.5-4c1.6 0 2.2.9 2.3 2.4h-1c0-.9-.3-1.6-1.3-1.6C2 1.6 1.8 3 1.8 4.8S2 8.1 3.3 8.1c1.2 0 1.3-1.1 1.4-2h1z" class="logo-agridees_svg__st1" transform="translate(105.152 54.948)"/><path d="M341.4 91.3h-1v-3.7h-2.7v3.7h-1v-7.8h1v3.2h2.7v-3.2h1v7.8zm1.5-7.7h1v7.8h-1z" class="logo-agridees_svg__st1" transform="translate(-224.882 -27.638)"/><path d="M1.8 4.3h.9c.6 0 1.6 0 1.6-1.5 0-.8-.5-1.2-1.4-1.2H1.8v2.7zM.8.8h2.5c1.1 0 2 1 2 2.1 0 .8-.5 1.5-1.2 1.8.7.1 1.2.7 1.2 1.3l.1 1.3c0 .9.2 1.1.4 1.2H4.6c-.2-.3-.3-.7-.3-1.1V6.2c-.1-1-.7-1.1-1.2-1.1H1.8v3.5h-1V.8zm12.6 3.7h1.1c.7 0 1.3-.5 1.3-1.5.1-.7-.4-1.3-1-1.4h-1.4v2.9zm-1-3.7h2c1.1-.2 2.2.5 2.4 1.6V3c.1 1.1-.8 2.2-1.9 2.2h-1.5v3.3h-1V.8z" class="logo-agridees_svg__st1" transform="translate(119.661 55.098)"/><path d="M363.1 88.4h2.1l-1-3.7-1.1 3.7zm.4-4.9h1.3l2.1 7.8h-1l-.6-2.1h-2.5l-.6 2.1h-1l2.3-7.8z" class="logo-agridees_svg__st1" transform="translate(-224.882 -27.638)"/><path d="M1.8 4.3h.9c.6 0 1.6 0 1.6-1.5 0-.8-.5-1.2-1.4-1.2H1.8v2.7zM.8.8h2.5c1.1 0 2 1 2 2.1 0 .8-.5 1.5-1.2 1.8.7.1 1.2.7 1.2 1.3l.1 1.3c0 .9.2 1.1.4 1.2H4.6c-.2-.3-.3-.7-.3-1.1l-.1-1.2c0-1-.6-1.1-1.1-1.1H1.8v3.5h-1V.8z" class="logo-agridees_svg__st1" transform="translate(141.959 55.098)"/><path d="M375.7 91.3h-1v-6.9h-1.9v-.8h4.9v.8h-2v6.9zm3.4-2.9h2.1l-1-3.7-1.1 3.7zm.5-4.9h1.3l2.1 7.8h-1l-.6-2.1h-2.5l-.6 2.1h-1l2.3-7.8z" class="logo-agridees_svg__st1" transform="translate(-224.882 -27.638)"/><path d="M4.6 3.1c0-.8-.3-1.5-1.3-1.5-1.3 0-1.5 1.5-1.5 3.2S2 8.1 3.3 8.1s1.4-1.6 1.4-2.6H3.2v-.8h2.4v4h-.7v-1c-.2.7-.9 1.2-1.7 1.2-2 0-2.4-1.9-2.4-4 0-2 .4-4 2.5-4 1.2-.1 2.2.8 2.3 2v.3l-1-.1z" class="logo-agridees_svg__st1" transform="translate(157.869 54.946)"/><path d="M389.8 83.5h4v.8h-3.1v2.4h2.9v.8h-2.9v2.8h3.2v.8h-4.1v-7.6z" class="logo-agridees_svg__st1" transform="translate(-224.882 -27.638)"/><path d="M1.8 4.3h.9c.6 0 1.6 0 1.6-1.5 0-.8-.5-1.2-1.4-1.2H1.8v2.7zM.8.8h2.5c1.1 0 2 1 2 2.1 0 .8-.5 1.5-1.2 1.8.7.1 1.2.7 1.1 1.3l.1 1.3c0 .9.2 1.1.4 1.2H4.6c-.2-.3-.3-.7-.3-1.1l-.1-1.2c0-1-.6-1.1-1.1-1.1H1.8v3.5h-1V.8z" class="logo-agridees_svg__st1" transform="translate(169.317 55.098)"/><path d="M407.3 88.4h2.1l-1-3.7-1.1 3.7zm.4-4.9h1.3l2.1 7.8h-1l-.6-2.1H407l-.6 2.1h-1l2.3-7.8zm3.3 0h1l1.5 6.7 1.5-6.7h1l-2 7.8h-1.2l-1.8-7.8zm6.6 4.9h2.1l-1-3.7-1.1 3.7zm.4-4.9h1.3l2.1 7.8h-1l-.6-2.1h-2.5l-.6 2.1h-1l2.3-7.8zm4.2 0h1.2L426 90v-6.5h1v7.8h-1.3l-2.5-6.3v6.3h-1v-7.8z" class="logo-agridees_svg__st1" transform="translate(-224.882 -27.638)"/><path d="M5.7 6.1C5.6 7.5 5 8.9 3.4 8.9 1.2 8.9.9 6.8.9 4.9s.4-4 2.5-4c1.6 0 2.2.9 2.3 2.4h-1c0-.9-.3-1.6-1.3-1.6C2 1.6 1.9 3 1.9 4.8S2 8.1 3.4 8.1c1.2 0 1.3-1.1 1.4-2h.9z" class="logo-agridees_svg__st1" transform="translate(202.628 54.948)"/><path d="M434.3 83.5h4v.8h-3.1v2.4h2.9v.8h-2.9v2.8h3.2v.8h-4.1v-7.6z" class="logo-agridees_svg__st1" transform="translate(-224.882 -27.638)"/><path d="M88.9 4.3h.9c.6 0 1.6 0 1.6-1.5 0-.8-.5-1.2-1.4-1.2h-1.1v2.7zm-1-3.5h2.5c1.1 0 2 1 2 2.1 0 .8-.5 1.5-1.2 1.8.6.1 1.1.6 1.1 1.3l.1 1.3c0 .9.2 1.1.4 1.2h-1.2c-.2-.3-.3-.7-.3-1.1l-.1-1.2c-.1-1.1-.7-1.1-1.2-1.1h-1.3v3.5h-1V.8zM3 4.8c0 .6-.5 1.1-1.1 1.1S.8 5.4.8 4.8c0-.6.5-1.1 1.1-1.1.6 0 1.1.5 1.1 1.1m49.3 0c0 .6-.5 1.1-1.1 1.1s-1.1-.5-1.1-1.1c0-.6.5-1.1 1.1-1.1.6 0 1.1.5 1.1 1.1" class="logo-agridees_svg__st1" transform="translate(126.796 55.098)"/></svg>