<svg width="27" height="27" viewBox="0 0 27 27" fill="none" xmlns="http://www.w3.org/2000/svg">
<path d="M17.5006 16.3665L16.9887 16.9065C16.9887 16.9065 15.7703 18.1879 12.446 14.688C9.12158 11.1881 10.34 9.90676 10.34 9.90676L10.6628 9.56589C11.4571 8.72889 11.5325 7.38564 10.8383 6.40464L9.42083 4.39876C8.56133 3.18376 6.90196 3.02401 5.91758 4.06014L4.15246 5.91751C3.66533 6.43164 3.33908 7.09651 3.37846 7.83564C3.47971 9.72564 4.28746 13.7903 8.79196 18.5344C13.5698 23.5631 18.053 23.7634 19.8856 23.5823C20.4661 23.526 20.9701 23.2121 21.3762 22.7846L22.9737 21.1016C24.0537 19.9654 23.75 18.0191 22.3685 17.2249L20.2197 15.9874C19.313 15.4665 18.2093 15.6195 17.5006 16.3654V16.3665ZM14.9176 2.11501C14.9537 1.89418 15.076 1.69671 15.2576 1.56594C15.4392 1.43517 15.6653 1.38179 15.8862 1.41751C15.9143 1.42314 16.0066 1.44001 16.055 1.45126C16.1506 1.47151 16.2845 1.50526 16.451 1.55251C16.7851 1.65039 17.252 1.81126 17.8122 2.06776C18.9327 2.58189 20.4233 3.48076 21.9713 5.02764C23.5193 6.57564 24.4182 8.06739 24.9323 9.18789C25.1888 9.74814 25.3486 10.2139 25.4465 10.5491C25.4958 10.7176 25.5382 10.888 25.5736 11.0599L25.5792 11.0948C25.6163 11.3176 25.5642 11.546 25.4344 11.7308C25.3045 11.9155 25.1072 12.0419 24.8851 12.0825C24.6648 12.1183 24.4393 12.0653 24.258 11.9352C24.0767 11.8051 23.9543 11.6085 23.9176 11.3884C23.8946 11.2641 23.8641 11.1412 23.8265 11.0205C23.7115 10.6342 23.5686 10.2567 23.399 9.89101C22.9602 8.93476 22.1705 7.61401 20.7777 6.22126C19.3861 4.82851 18.0642 4.03989 17.108 3.60114C16.7427 3.43151 16.3656 3.28863 15.9796 3.17364C15.8612 3.14024 15.7419 3.11023 15.6218 3.08364C15.4006 3.04711 15.2027 2.92505 15.0707 2.74383C14.9387 2.5626 14.8833 2.33674 14.9165 2.11501H14.9176Z" fill="#F8D32A"/>
<path fill-rule="evenodd" clip-rule="evenodd" d="M15.1719 5.99626C15.2022 5.88965 15.2532 5.79006 15.3221 5.70319C15.3909 5.61631 15.4762 5.54385 15.573 5.48994C15.6699 5.43603 15.7764 5.40173 15.8865 5.38901C15.9966 5.37628 16.1081 5.38537 16.2147 5.41576L16.2181 5.41688L16.2215 5.41801L16.2305 5.42026L16.253 5.42701L16.316 5.44951C16.615 5.56469 16.9036 5.70507 17.1789 5.86913C17.729 6.19538 18.4805 6.73538 19.3636 7.61963C20.2467 8.50276 20.7879 9.25426 21.1141 9.80438C21.2772 10.08 21.3852 10.3039 21.455 10.4681C21.4924 10.554 21.5262 10.6415 21.5562 10.7303L21.5619 10.7528L21.5652 10.7618V10.7651L21.5664 10.7663C21.5664 10.7663 21.5664 10.7685 20.7564 11.0003L21.5664 10.7685C21.6235 10.9814 21.5951 11.2082 21.4871 11.4003C21.3792 11.5925 21.2004 11.7348 20.9889 11.7969C20.7774 11.8589 20.55 11.8357 20.3554 11.7322C20.1608 11.6288 20.0144 11.4533 19.9475 11.2433L19.9441 11.232C19.865 11.0361 19.771 10.8465 19.6629 10.665C19.4109 10.2409 18.9575 9.59963 18.17 8.81213C17.3825 8.02463 16.7424 7.57238 16.3182 7.32151C16.1367 7.21336 15.9472 7.11933 15.7512 7.04026L15.74 7.03576C15.5275 6.97186 15.3487 6.82682 15.2423 6.63205C15.136 6.43727 15.1107 6.20957 15.1719 5.99626Z" fill="#F8D32A"/>
</svg>
